<?xml version="1.0" standalone="no"?><!DOCTYPE svg PUBLIC "-//W3C//DTD SVG 1.1//EN" "http://www.w3.org/Graphics/SVG/1.1/DTD/svg11.dtd"><svg t="1538154501955" class="icon" style="" viewBox="0 0 1024 1024" version="1.1" xmlns="http://www.w3.org/2000/svg" p-id="7252" xmlns:xlink="http://www.w3.org/1999/xlink" width="64" height="64"><defs><style type="text/css"></style></defs><path d="M900.042105 926.989474V501.221053H835.368421v-53.894737h-53.894737v53.894737h-64.673684v425.768421H673.684211V134.736842h-64.673685V21.557895H388.042105v113.178947H312.589474v792.252632h-43.11579V501.221053H204.8v-53.894737h-53.894737v53.894737H80.842105v425.768421H32.336842v53.894737h916.210526v-53.894737h-48.505263z m-123.957894-371.873685h70.063157v371.873685h-70.063157v-371.873685zM441.936842 80.842105h113.178947v59.284211H441.936842V80.842105zM361.094737 194.021053H619.789474v738.357894H361.094737V194.021053zM134.736842 555.115789h75.452632v371.873685H134.736842v-371.873685z" fill="#ffffff" p-id="7253"></path><path d="M436.547368 323.368421h118.568421v53.894737H436.547368zM436.547368 474.273684h118.568421v53.894737H436.547368zM436.547368 619.789474h118.568421v53.894737H436.547368zM436.547368 770.694737h118.568421v53.894737H436.547368z" fill="#ffffff" p-id="7254"></path></svg>