<?xml version="1.0" standalone="no"?><!DOCTYPE svg PUBLIC "-//W3C//DTD SVG 1.1//EN" "http://www.w3.org/Graphics/SVG/1.1/DTD/svg11.dtd"><svg t="1538154462662" class="icon" style="" viewBox="0 0 1024 1024" version="1.1" xmlns="http://www.w3.org/2000/svg" p-id="6628" xmlns:xlink="http://www.w3.org/1999/xlink" width="64" height="64"><defs><style type="text/css"></style></defs><path d="M864 64H160c-51.2 0-96 44.8-96 96v704c0 51.2 44.8 96 96 96h704c51.2 0 96-44.8 96-96V160c0-51.2-44.8-96-96-96z m32 800c0 19.2-12.8 32-32 32H160c-19.2 0-32-12.8-32-32V160c0-19.2 12.8-32 32-32h704c19.2 0 32 12.8 32 32v704z" fill="#ffffff" p-id="6629"></path><path d="M736 192h-64v96H544v-96h-64v96H352v-96h-64v96h-96v64h96v128h-96v64h96v128h-96v64h96v96h64v-96h128v96h64v-96h128v96h64v-96h96v-64h-96V544h96v-64h-96V352h96v-64h-96v-96zM352 352h128v128H352V352z m0 320V544h128v128H352z m320 0H544V544h128v128z m0-192H544V352h128v128z" fill="#ffffff" p-id="6630"></path></svg>