<?xml version="1.0" standalone="no"?><!DOCTYPE svg PUBLIC "-//W3C//DTD SVG 1.1//EN" "http://www.w3.org/Graphics/SVG/1.1/DTD/svg11.dtd"><svg t="1538155135693" class="icon" style="" viewBox="0 0 1144 1024" version="1.1" xmlns="http://www.w3.org/2000/svg" p-id="2631" xmlns:xlink="http://www.w3.org/1999/xlink" width="71.5" height="64"><defs><style type="text/css"></style></defs><path d="M785.554286 81.67619m-36.815238 0a36.815238 36.815238 0 1 0 73.630476 0 36.815238 36.815238 0 1 0-73.630476 0Z" fill="#ffffff" p-id="2632"></path><path d="M849.432381 443.001905h-63.878095a37.059048 37.059048 0 1 0 0 73.142857h63.878095a37.059048 37.059048 0 0 0 0-73.142857z" fill="#ffffff" p-id="2633"></path><path d="M787.992381 44.860952v70.704762c100.937143 0 172.129524 63.146667 172.129524 158.232381a172.373333 172.373333 0 0 1-172.129524 172.373334v70.704761a246.00381 246.00381 0 0 0 246.003809-246.003809c0-136.045714-101.912381-226.011429-246.003809-226.011429z" fill="#ffffff" p-id="2634"></path><path d="M443.001905 73.142857a222.354286 222.354286 0 1 1-222.110476 222.354286A222.598095 222.598095 0 0 1 443.001905 73.142857m0-73.142857a295.497143 295.497143 0 1 0 295.497143 295.497143A295.253333 295.253333 0 0 0 443.001905 0z" fill="#ffffff" p-id="2635"></path><path d="M73.142857 987.672381l-73.142857-5.36381c19.017143-246.979048 213.577143-440.32 443.001905-440.32s424.472381 193.340952 442.514285 440.32l-73.142857 5.36381C797.257143 778.727619 633.904762 615.131429 443.001905 615.131429S88.990476 778.727619 73.142857 987.672381z" fill="#ffffff" p-id="2636"></path><path d="M849.188571 987.184762m-36.815238 0a36.815238 36.815238 0 1 0 73.630477 0 36.815238 36.815238 0 1 0-73.630477 0Z" fill="#ffffff" p-id="2637"></path><path d="M36.815238 987.184762m-36.815238 0a36.815238 36.815238 0 1 0 73.630476 0 36.815238 36.815238 0 1 0-73.630476 0Z" fill="#ffffff" p-id="2638"></path><path d="M1107.626667 836.998095a36.571429 36.571429 0 0 1-36.327619-33.889524c-11.702857-160.670476-136.289524-286.47619-283.550477-286.47619a36.571429 36.571429 0 0 1 0-73.142857c185.295238 0 341.333333 155.550476 356.449524 354.255238a36.571429 36.571429 0 0 1-33.889524 39.253333z" fill="#ffffff" p-id="2639"></path></svg>