<?xml version="1.0" standalone="no"?><!DOCTYPE svg PUBLIC "-//W3C//DTD SVG 1.1//EN" "http://www.w3.org/Graphics/SVG/1.1/DTD/svg11.dtd"><svg t="1538154451073" class="icon" style="" viewBox="0 0 1024 1024" version="1.1" xmlns="http://www.w3.org/2000/svg" p-id="5532" xmlns:xlink="http://www.w3.org/1999/xlink" width="64" height="64"><defs><style type="text/css"></style></defs><path d="M614.4 991.086c0-10.972-7.314-18.286-18.286-18.286h-3.657c-138.971 25.6-281.6-10.971-387.657-106.057-76.8-65.829-128-157.257-149.943-256L76.8 599.77c18.286-7.314 21.943-25.6 7.314-40.228l-51.2-54.857C10.971 479.086 0 486.4 3.657 519.314l14.629 91.429c0 3.657 0 7.314 3.657 7.314 25.6 113.372 84.114 212.114 164.571 281.6C299.886 998.4 449.83 1042.286 603.43 1009.371c7.314-3.657 10.971-10.971 10.971-18.285zM413.257 32.914c0 10.972 7.314 18.286 18.286 18.286h3.657c138.971-25.6 281.6 10.971 387.657 106.057 76.8 65.829 128 157.257 149.943 256l-21.943 10.972c-18.286 7.314-21.943 25.6-7.314 40.228l51.2 54.857c21.943 25.6 32.914 18.286 29.257-14.628l-14.629-91.429c0-3.657 0-7.314-3.657-7.314-25.6-113.372-80.457-212.114-164.571-281.6C727.77 25.6 577.829-18.286 424.229 14.629c-3.658 3.657-10.972 10.971-10.972 18.285z" fill="#ffffff" p-id="5533"></path><path d="M497.371 468.114c7.315 3.657 21.943 3.657 25.6 0L775.314 321.83 526.63 179.2c-7.315-3.657-21.943-3.657-25.6 0L248.686 325.486 497.37 468.114z m-18.285-321.828c18.285-10.972 47.543-10.972 62.171 0l274.286 157.257c18.286 10.971 18.286 25.6 0 36.571L541.257 497.371c-18.286 10.972-47.543 10.972-62.171 0L204.8 340.114c-18.286-10.971-18.286-25.6 0-36.571l274.286-157.257z m-270.629 537.6c0 7.314 7.314 18.285 14.629 21.943L464.457 844.8V577.829c0-7.315-7.314-18.286-14.628-21.943L208.457 416.914v266.972zM468.114 522.97c18.286 10.972 32.915 36.572 32.915 54.858V870.4c0 21.943-14.629 29.257-32.915 18.286L204.8 735.086c-18.286-10.972-32.914-36.572-32.914-54.857V387.657c0-21.943 14.628-29.257 32.914-18.286l263.314 153.6z m106.057 29.258c-7.314 3.657-14.628 14.628-14.628 21.942v266.972L800.914 702.17c7.315-3.657 14.629-14.628 14.629-21.942V413.257L574.17 552.23zM822.857 369.37c18.286-10.971 32.914 0 32.914 18.286v296.229c0 21.943-14.628 43.885-32.914 54.857l-263.314 153.6c-18.286 10.971-32.914 0-32.914-18.286V577.83c0-21.943 14.628-43.886 32.914-54.858l263.314-153.6z" fill="#ffffff" p-id="5534"></path></svg>